<svg width="50" height="50" viewBox="0 0 50 50" fill="none" xmlns="http://www.w3.org/2000/svg">
<circle cx="25" cy="25" r="25" fill="#1B7340"/>
<path d="M14.4595 26.456L13.6435 27.008C13.8275 27.376 14.0635 27.724 14.3515 28.052C14.6475 28.372 14.9875 28.632 15.3715 28.832C15.7635 29.024 16.1875 29.12 16.6435 29.12C16.9795 29.12 17.2995 29.064 17.6035 28.952C17.9155 28.84 18.1915 28.68 18.4315 28.472C18.6795 28.264 18.8715 28.012 19.0075 27.716C19.1515 27.42 19.2235 27.088 19.2235 26.72C19.2235 26.336 19.1555 26.008 19.0195 25.736C18.8835 25.456 18.7075 25.22 18.4915 25.028C18.2835 24.828 18.0555 24.664 17.8075 24.536C17.5595 24.408 17.3235 24.304 17.0995 24.224C16.6115 24.056 16.2235 23.888 15.9355 23.72C15.6555 23.544 15.4555 23.36 15.3355 23.168C15.2155 22.968 15.1555 22.752 15.1555 22.52C15.1555 22.248 15.2595 22.004 15.4675 21.788C15.6755 21.564 16.0075 21.452 16.4635 21.452C16.7915 21.452 17.0675 21.516 17.2915 21.644C17.5235 21.772 17.7195 21.936 17.8795 22.136C18.0395 22.336 18.1715 22.54 18.2755 22.748L19.1515 22.244C19.0155 21.948 18.8275 21.668 18.5875 21.404C18.3475 21.132 18.0555 20.912 17.7115 20.744C17.3755 20.568 16.9795 20.48 16.5235 20.48C16.0515 20.48 15.6315 20.576 15.2635 20.768C14.8955 20.952 14.6075 21.208 14.3995 21.536C14.1915 21.864 14.0875 22.236 14.0875 22.652C14.0875 23.036 14.1595 23.36 14.3035 23.624C14.4555 23.888 14.6475 24.112 14.8795 24.296C15.1115 24.472 15.3555 24.62 15.6115 24.74C15.8675 24.852 16.0995 24.944 16.3075 25.016C16.6275 25.128 16.9275 25.256 17.2075 25.4C17.4955 25.536 17.7275 25.716 17.9035 25.94C18.0795 26.164 18.1675 26.464 18.1675 26.84C18.1675 27.224 18.0315 27.54 17.7595 27.788C17.4875 28.036 17.1275 28.16 16.6795 28.16C16.3435 28.16 16.0435 28.088 15.7795 27.944C15.5155 27.8 15.2755 27.6 15.0595 27.344C14.8515 27.088 14.6515 26.792 14.4595 26.456ZM23.7217 27.104L20.9617 20.6H19.8217L23.7217 29.42L27.6217 20.6H26.4817L23.7217 27.104ZM32.3678 25.7H35.1638C35.0918 26.028 34.9758 26.336 34.8158 26.624C34.6638 26.912 34.4678 27.168 34.2278 27.392C33.9878 27.616 33.6998 27.792 33.3638 27.92C33.0358 28.04 32.6638 28.1 32.2478 28.1C31.6558 28.1 31.1198 27.96 30.6398 27.68C30.1598 27.4 29.7758 27.012 29.4878 26.516C29.2078 26.02 29.0678 25.448 29.0678 24.8C29.0678 24.144 29.2078 23.572 29.4878 23.084C29.7758 22.588 30.1598 22.2 30.6398 21.92C31.1198 21.64 31.6558 21.5 32.2478 21.5C32.8878 21.5 33.4438 21.628 33.9158 21.884C34.3878 22.132 34.7558 22.48 35.0198 22.928L35.7398 22.268C35.4998 21.876 35.2038 21.548 34.8518 21.284C34.5078 21.02 34.1158 20.82 33.6758 20.684C33.2438 20.548 32.7678 20.48 32.2478 20.48C31.6398 20.48 31.0758 20.588 30.5558 20.804C30.0358 21.012 29.5838 21.312 29.1998 21.704C28.8158 22.088 28.5158 22.544 28.2998 23.072C28.0918 23.6 27.9878 24.176 27.9878 24.8C27.9878 25.424 28.0918 26 28.2998 26.528C28.5158 27.056 28.8158 27.516 29.1998 27.908C29.5838 28.292 30.0358 28.592 30.5558 28.808C31.0758 29.016 31.6398 29.12 32.2478 29.12C32.8878 29.12 33.4558 29.004 33.9518 28.772C34.4558 28.532 34.8798 28.208 35.2238 27.8C35.5678 27.392 35.8278 26.928 36.0038 26.408C36.1798 25.88 36.2678 25.324 36.2678 24.74H32.3678V25.7Z" fill="white"/>
</svg>
