<svg width="63" height="48" viewBox="0 0 63 48" fill="none" xmlns="http://www.w3.org/2000/svg">
<g filter="url(#filter0_d_75_7)">
<rect x="4" width="55" height="40" rx="20" fill="url(#paint0_linear_75_7)"/>
</g>
<path d="M13.5335 14.3H14.6635C15.0835 14.3 15.4468 14.24 15.7535 14.12C16.0668 14 16.3101 13.8233 16.4835 13.59C16.6568 13.3567 16.7435 13.0767 16.7435 12.75C16.7435 12.35 16.6568 12.0233 16.4835 11.77C16.3101 11.51 16.0668 11.3167 15.7535 11.19C15.4468 11.0633 15.0835 11 14.6635 11H12.8635V18H14.7635C15.2168 18 15.6201 17.9267 15.9735 17.78C16.3335 17.6267 16.6168 17.4 16.8235 17.1C17.0368 16.7933 17.1435 16.41 17.1435 15.95C17.1435 15.63 17.0835 15.3533 16.9635 15.12C16.8435 14.8867 16.6735 14.6967 16.4535 14.55C16.2401 14.3967 15.9901 14.2833 15.7035 14.21C15.4168 14.1367 15.1035 14.1 14.7635 14.1H13.5335V14.57H14.7635C14.9901 14.57 15.1968 14.6 15.3835 14.66C15.5701 14.7133 15.7301 14.7967 15.8635 14.91C16.0035 15.0233 16.1101 15.1633 16.1835 15.33C16.2568 15.4967 16.2935 15.6867 16.2935 15.9C16.2935 16.1867 16.2268 16.43 16.0935 16.63C15.9668 16.83 15.7868 16.9833 15.5535 17.09C15.3268 17.1967 15.0635 17.25 14.7635 17.25H13.7135V11.75H14.6635C15.0168 11.75 15.3101 11.8433 15.5435 12.03C15.7768 12.21 15.8935 12.4667 15.8935 12.8C15.8935 13.02 15.8401 13.2067 15.7335 13.36C15.6268 13.5133 15.4801 13.63 15.2935 13.71C15.1068 13.79 14.8968 13.83 14.6635 13.83H13.5335V14.3ZM17.9896 15.7C17.9896 16.16 18.093 16.5733 18.2996 16.94C18.513 17.3 18.7996 17.5833 19.1596 17.79C19.5196 17.9967 19.923 18.1 20.3696 18.1C20.823 18.1 21.2263 17.9967 21.5796 17.79C21.9396 17.5833 22.223 17.3 22.4296 16.94C22.643 16.5733 22.7496 16.16 22.7496 15.7C22.7496 15.2333 22.643 14.82 22.4296 14.46C22.223 14.1 21.9396 13.8167 21.5796 13.61C21.2263 13.4033 20.823 13.3 20.3696 13.3C19.923 13.3 19.5196 13.4033 19.1596 13.61C18.7996 13.8167 18.513 14.1 18.2996 14.46C18.093 14.82 17.9896 15.2333 17.9896 15.7ZM18.7996 15.7C18.7996 15.38 18.8663 15.0967 18.9996 14.85C19.1396 14.5967 19.3263 14.4 19.5596 14.26C19.7996 14.12 20.0696 14.05 20.3696 14.05C20.6696 14.05 20.9363 14.12 21.1696 14.26C21.4096 14.4 21.5963 14.5967 21.7296 14.85C21.8696 15.0967 21.9396 15.38 21.9396 15.7C21.9396 16.02 21.8696 16.3033 21.7296 16.55C21.5963 16.7967 21.4096 16.9933 21.1696 17.14C20.9363 17.28 20.6696 17.35 20.3696 17.35C20.0696 17.35 19.7996 17.28 19.5596 17.14C19.3263 16.9933 19.1396 16.7967 18.9996 16.55C18.8663 16.3033 18.7996 16.02 18.7996 15.7ZM24.6486 16.2V13.4H23.8486V16.3C23.8486 16.8467 23.992 17.2833 24.2786 17.61C24.5653 17.9367 24.9486 18.1 25.4286 18.1C25.7353 18.1 26.002 18.0333 26.2286 17.9C26.4553 17.76 26.6453 17.5533 26.7986 17.28V18H27.5986V13.4H26.7986V16.2C26.7986 16.4267 26.7486 16.6267 26.6486 16.8C26.5553 16.9733 26.4186 17.11 26.2386 17.21C26.0653 17.3033 25.862 17.35 25.6286 17.35C25.3086 17.35 25.0653 17.25 24.8986 17.05C24.732 16.85 24.6486 16.5667 24.6486 16.2ZM32.0525 15.2V18H32.8525V15.1C32.8525 14.5467 32.7092 14.11 32.4225 13.79C32.1425 13.4633 31.7592 13.3 31.2725 13.3C30.9725 13.3 30.7059 13.3667 30.4725 13.5C30.2459 13.6333 30.0559 13.84 29.9025 14.12V13.4H29.1025V18H29.9025V15.2C29.9025 14.9733 29.9492 14.7733 30.0425 14.6C30.1425 14.4267 30.2792 14.2933 30.4525 14.2C30.6325 14.1 30.8392 14.05 31.0725 14.05C31.3925 14.05 31.6359 14.1467 31.8025 14.34C31.9692 14.5333 32.0525 14.82 32.0525 15.2ZM34.7164 15.7C34.7164 15.38 34.7831 15.0967 34.9164 14.85C35.0564 14.5967 35.2431 14.4 35.4764 14.26C35.7164 14.12 35.9864 14.05 36.2864 14.05C36.5331 14.05 36.7631 14.09 36.9764 14.17C37.1964 14.2433 37.3864 14.3433 37.5464 14.47C37.7064 14.5967 37.8198 14.7367 37.8864 14.89V13.89C37.7264 13.7033 37.4964 13.56 37.1964 13.46C36.9031 13.3533 36.5998 13.3 36.2864 13.3C35.8398 13.3 35.4364 13.4033 35.0764 13.61C34.7164 13.8167 34.4298 14.1 34.2164 14.46C34.0098 14.82 33.9064 15.2333 33.9064 15.7C33.9064 16.16 34.0098 16.5733 34.2164 16.94C34.4298 17.3 34.7164 17.5833 35.0764 17.79C35.4364 17.9967 35.8398 18.1 36.2864 18.1C36.5998 18.1 36.9031 18.05 37.1964 17.95C37.4964 17.8433 37.7264 17.6967 37.8864 17.51V16.51C37.8198 16.6567 37.7064 16.7967 37.5464 16.93C37.3864 17.0567 37.1964 17.16 36.9764 17.24C36.7631 17.3133 36.5331 17.35 36.2864 17.35C35.9864 17.35 35.7164 17.28 35.4764 17.14C35.2431 16.9933 35.0564 16.7967 34.9164 16.55C34.7831 16.3033 34.7164 16.02 34.7164 15.7ZM39.1318 11.5C39.1318 11.6467 39.1852 11.7767 39.2918 11.89C39.4052 11.9967 39.5352 12.05 39.6818 12.05C39.8352 12.05 39.9652 11.9967 40.0718 11.89C40.1785 11.7767 40.2318 11.6467 40.2318 11.5C40.2318 11.3467 40.1785 11.2167 40.0718 11.11C39.9652 11.0033 39.8352 10.95 39.6818 10.95C39.5352 10.95 39.4052 11.0033 39.2918 11.11C39.1852 11.2167 39.1318 11.3467 39.1318 11.5ZM39.2818 13.4V18H40.0818V13.4H39.2818ZM44.6795 15.2V18H45.4795V15.1C45.4795 14.5467 45.3362 14.11 45.0495 13.79C44.7695 13.4633 44.3862 13.3 43.8995 13.3C43.5995 13.3 43.3328 13.3667 43.0995 13.5C42.8728 13.6333 42.6828 13.84 42.5295 14.12V13.4H41.7295V18H42.5295V15.2C42.5295 14.9733 42.5762 14.7733 42.6695 14.6C42.7695 14.4267 42.9062 14.2933 43.0795 14.2C43.2595 14.1 43.4662 14.05 43.6995 14.05C44.0195 14.05 44.2628 14.1467 44.4295 14.34C44.5962 14.5333 44.6795 14.82 44.6795 15.2ZM46.6734 18.3C46.6734 18.6933 46.7701 19.04 46.9634 19.34C47.1567 19.6467 47.4234 19.8833 47.7634 20.05C48.1101 20.2167 48.5067 20.3 48.9534 20.3C49.3401 20.3 49.7067 20.21 50.0534 20.03C50.4001 19.85 50.6834 19.58 50.9034 19.22C51.1234 18.8667 51.2334 18.4267 51.2334 17.9V13.4H50.4334V17.9C50.4334 18.2867 50.3567 18.6 50.2034 18.84C50.0567 19.0867 49.8701 19.2667 49.6434 19.38C49.4167 19.4933 49.1867 19.55 48.9534 19.55C48.6534 19.55 48.3934 19.49 48.1734 19.37C47.9534 19.2567 47.7834 19.1033 47.6634 18.91C47.5434 18.7233 47.4834 18.52 47.4834 18.3H46.6734ZM46.5834 15.7C46.5834 16.1933 46.6867 16.62 46.8934 16.98C47.1001 17.34 47.3767 17.6167 47.7234 17.81C48.0701 18.0033 48.4501 18.1 48.8634 18.1C49.2501 18.1 49.5867 18.0033 49.8734 17.81C50.1601 17.6167 50.3834 17.34 50.5434 16.98C50.7101 16.62 50.7934 16.1933 50.7934 15.7C50.7934 15.2 50.7101 14.7733 50.5434 14.42C50.3834 14.06 50.1601 13.7833 49.8734 13.59C49.5867 13.3967 49.2501 13.3 48.8634 13.3C48.4501 13.3 48.0701 13.3967 47.7234 13.59C47.3767 13.7833 47.1001 14.06 46.8934 14.42C46.6867 14.7733 46.5834 15.2 46.5834 15.7ZM47.3934 15.7C47.3934 15.3467 47.4634 15.0467 47.6034 14.8C47.7501 14.5533 47.9434 14.3667 48.1834 14.24C48.4234 14.1133 48.6834 14.05 48.9634 14.05C49.1367 14.05 49.3101 14.0867 49.4834 14.16C49.6567 14.2333 49.8134 14.34 49.9534 14.48C50.1001 14.62 50.2167 14.7933 50.3034 15C50.3901 15.2 50.4334 15.4333 50.4334 15.7C50.4334 16.0533 50.3601 16.3533 50.2134 16.6C50.0667 16.8467 49.8801 17.0333 49.6534 17.16C49.4267 17.2867 49.1967 17.35 48.9634 17.35C48.6834 17.35 48.4234 17.2867 48.1834 17.16C47.9434 17.0333 47.7501 16.8467 47.6034 16.6C47.4634 16.3533 47.3934 16.0533 47.3934 15.7ZM23.2163 29.88L22.5363 30.34C22.6896 30.6467 22.8863 30.9367 23.1263 31.21C23.3729 31.4767 23.6563 31.6933 23.9763 31.86C24.3029 32.02 24.6563 32.1 25.0363 32.1C25.3163 32.1 25.5829 32.0533 25.8363 31.96C26.0963 31.8667 26.3263 31.7333 26.5263 31.56C26.7329 31.3867 26.8929 31.1767 27.0063 30.93C27.1263 30.6833 27.1863 30.4067 27.1863 30.1C27.1863 29.78 27.1296 29.5067 27.0163 29.28C26.9029 29.0467 26.7563 28.85 26.5763 28.69C26.4029 28.5233 26.2129 28.3867 26.0063 28.28C25.7996 28.1733 25.6029 28.0867 25.4163 28.02C25.0096 27.88 24.6863 27.74 24.4463 27.6C24.2129 27.4533 24.0463 27.3 23.9463 27.14C23.8463 26.9733 23.7963 26.7933 23.7963 26.6C23.7963 26.3733 23.8829 26.17 24.0563 25.99C24.2296 25.8033 24.5063 25.71 24.8863 25.71C25.1596 25.71 25.3896 25.7633 25.5763 25.87C25.7696 25.9767 25.9329 26.1133 26.0663 26.28C26.1996 26.4467 26.3096 26.6167 26.3963 26.79L27.1263 26.37C27.0129 26.1233 26.8563 25.89 26.6563 25.67C26.4563 25.4433 26.2129 25.26 25.9263 25.12C25.6463 24.9733 25.3163 24.9 24.9363 24.9C24.5429 24.9 24.1929 24.98 23.8863 25.14C23.5796 25.2933 23.3396 25.5067 23.1663 25.78C22.9929 26.0533 22.9063 26.3633 22.9063 26.71C22.9063 27.03 22.9663 27.3 23.0863 27.52C23.2129 27.74 23.3729 27.9267 23.5663 28.08C23.7596 28.2267 23.9629 28.35 24.1763 28.45C24.3896 28.5433 24.5829 28.62 24.7563 28.68C25.0229 28.7733 25.2729 28.88 25.5063 29C25.7463 29.1133 25.9396 29.2633 26.0863 29.45C26.2329 29.6367 26.3063 29.8867 26.3063 30.2C26.3063 30.52 26.1929 30.7833 25.9663 30.99C25.7396 31.1967 25.4396 31.3 25.0663 31.3C24.7863 31.3 24.5363 31.24 24.3163 31.12C24.0963 31 23.8963 30.8333 23.7163 30.62C23.5429 30.4067 23.3763 30.16 23.2163 29.88ZM30.9348 30.42L28.6348 25H27.6848L30.9348 32.35L34.1848 25H33.2348L30.9348 30.42ZM38.1398 29.25H40.4698C40.4098 29.5233 40.3132 29.78 40.1798 30.02C40.0532 30.26 39.8898 30.4733 39.6898 30.66C39.4898 30.8467 39.2498 30.9933 38.9698 31.1C38.6965 31.2 38.3865 31.25 38.0398 31.25C37.5465 31.25 37.0998 31.1333 36.6998 30.9C36.2998 30.6667 35.9798 30.3433 35.7398 29.93C35.5065 29.5167 35.3898 29.04 35.3898 28.5C35.3898 27.9533 35.5065 27.4767 35.7398 27.07C35.9798 26.6567 36.2998 26.3333 36.6998 26.1C37.0998 25.8667 37.5465 25.75 38.0398 25.75C38.5732 25.75 39.0365 25.8567 39.4298 26.07C39.8232 26.2767 40.1298 26.5667 40.3498 26.94L40.9498 26.39C40.7498 26.0633 40.5032 25.79 40.2098 25.57C39.9232 25.35 39.5965 25.1833 39.2298 25.07C38.8698 24.9567 38.4732 24.9 38.0398 24.9C37.5332 24.9 37.0632 24.99 36.6298 25.17C36.1965 25.3433 35.8198 25.5933 35.4998 25.92C35.1798 26.24 34.9298 26.62 34.7498 27.06C34.5765 27.5 34.4898 27.98 34.4898 28.5C34.4898 29.02 34.5765 29.5 34.7498 29.94C34.9298 30.38 35.1798 30.7633 35.4998 31.09C35.8198 31.41 36.1965 31.66 36.6298 31.84C37.0632 32.0133 37.5332 32.1 38.0398 32.1C38.5732 32.1 39.0465 32.0033 39.4598 31.81C39.8798 31.61 40.2332 31.34 40.5198 31C40.8065 30.66 41.0232 30.2733 41.1698 29.84C41.3165 29.4 41.3898 28.9367 41.3898 28.45H38.1398V29.25Z" fill="#FFFEFE"/>
<defs>
<filter id="filter0_d_75_7" x="0" y="0" width="63" height="48" filterUnits="userSpaceOnUse" color-interpolation-filters="sRGB">
<feFlood flood-opacity="0" result="BackgroundImageFix"/>
<feColorMatrix in="SourceAlpha" type="matrix" values="0 0 0 0 0 0 0 0 0 0 0 0 0 0 0 0 0 0 127 0" result="hardAlpha"/>
<feOffset dy="4"/>
<feGaussianBlur stdDeviation="2"/>
<feComposite in2="hardAlpha" operator="out"/>
<feColorMatrix type="matrix" values="0 0 0 0 0 0 0 0 0 0 0 0 0 0 0 0 0 0 0.25 0"/>
<feBlend mode="normal" in2="BackgroundImageFix" result="effect1_dropShadow_75_7"/>
<feBlend mode="normal" in="SourceGraphic" in2="effect1_dropShadow_75_7" result="shape"/>
</filter>
<linearGradient id="paint0_linear_75_7" x1="31.5" y1="0" x2="31.5" y2="40" gradientUnits="userSpaceOnUse">
<stop stop-color="#F36D3A"/>
<stop offset="1" stop-color="#FFCD00"/>
</linearGradient>
</defs>
</svg>
